<mxfile host="65bd71144e">
    <diagram id="Pv3sBYRrSlboccctLOhg" name="TF-A">
        <mxGraphModel dx="960" dy="797" grid="0" gridSize="10" guides="1" tooltips="1" connect="1" arrows="1" fold="1" page="1" pageScale="1" pageWidth="850" pageHeight="1100" math="0" shadow="0">
            <root>
                <mxCell id="0"/>
                <mxCell id="1" parent="0"/>
                <mxCell id="_kL3S8aDfBufA-84TGPT-1" value="&lt;div style=&quot;color: rgb(59, 59, 59); background-color: rgb(255, 255, 255); font-family: Consolas, &amp;quot;Courier New&amp;quot;, monospace; font-size: 14px; line-height: 19px;&quot;&gt;BootROM(BL1) &lt;/div&gt;" style="rounded=0;whiteSpace=wrap;html=1;" parent="1" vertex="1">
                    <mxGeometry x="59" y="383" width="120" height="40" as="geometry"/>
                </mxCell>
                <mxCell id="_kL3S8aDfBufA-84TGPT-2" value="&lt;div style=&quot;color: rgb(59, 59, 59); background-color: rgb(255, 255, 255); font-family: Consolas, &amp;quot;Courier New&amp;quot;, monospace; font-size: 14px; line-height: 19px;&quot;&gt;SPL+TPL(BL2)&lt;/div&gt;" style="rounded=0;whiteSpace=wrap;html=1;" parent="1" vertex="1">
                    <mxGeometry x="219" y="383" width="120" height="40" as="geometry"/>
                </mxCell>
                <mxCell id="_kL3S8aDfBufA-84TGPT-3" value="&lt;div style=&quot;color: rgb(59, 59, 59); background-color: rgb(255, 255, 255); font-family: Consolas, &amp;quot;Courier New&amp;quot;, monospace; font-size: 14px; line-height: 19px;&quot;&gt;Trust.img(BL32)&lt;/div&gt;" style="rounded=0;whiteSpace=wrap;html=1;" parent="1" vertex="1">
                    <mxGeometry x="379" y="303" width="120" height="40" as="geometry"/>
                </mxCell>
                <mxCell id="_kL3S8aDfBufA-84TGPT-4" value="&lt;div style=&quot;color: rgb(59, 59, 59); background-color: rgb(255, 255, 255); font-family: Consolas, &amp;quot;Courier New&amp;quot;, monospace; font-size: 14px; line-height: 19px;&quot;&gt;UBoot.img(BL33)&lt;/div&gt;" style="rounded=0;whiteSpace=wrap;html=1;" parent="1" vertex="1">
                    <mxGeometry x="379" y="463" width="120" height="40" as="geometry"/>
                </mxCell>
                <mxCell id="_kL3S8aDfBufA-84TGPT-5" value="&lt;div style=&quot;color: rgb(59, 59, 59); background-color: rgb(255, 255, 255); font-family: Consolas, &amp;quot;Courier New&amp;quot;, monospace; font-size: 14px; line-height: 19px;&quot;&gt;Kernel&lt;/div&gt;" style="rounded=0;whiteSpace=wrap;html=1;" parent="1" vertex="1">
                    <mxGeometry x="559" y="463" width="80" height="40" as="geometry"/>
                </mxCell>
                <mxCell id="_kL3S8aDfBufA-84TGPT-6" value="&lt;div style=&quot;color: rgb(59, 59, 59); background-color: rgb(255, 255, 255); font-family: Consolas, &amp;quot;Courier New&amp;quot;, monospace; font-size: 14px; line-height: 19px;&quot;&gt;Rootfs&lt;/div&gt;" style="rounded=0;whiteSpace=wrap;html=1;" parent="1" vertex="1">
                    <mxGeometry x="699" y="463" width="80" height="40" as="geometry"/>
                </mxCell>
                <mxCell id="_kL3S8aDfBufA-84TGPT-8" value="" style="endArrow=classic;html=1;exitX=1;exitY=0.5;exitDx=0;exitDy=0;entryX=0;entryY=0.5;entryDx=0;entryDy=0;" parent="1" source="_kL3S8aDfBufA-84TGPT-1" target="_kL3S8aDfBufA-84TGPT-2" edge="1">
                    <mxGeometry width="50" height="50" relative="1" as="geometry">
                        <mxPoint x="459" y="653" as="sourcePoint"/>
                        <mxPoint x="509" y="603" as="targetPoint"/>
                    </mxGeometry>
                </mxCell>
                <mxCell id="_kL3S8aDfBufA-84TGPT-9" value="" style="endArrow=classic;html=1;entryX=0;entryY=0.5;entryDx=0;entryDy=0;" parent="1" target="_kL3S8aDfBufA-84TGPT-3" edge="1">
                    <mxGeometry width="50" height="50" relative="1" as="geometry">
                        <mxPoint x="339" y="403" as="sourcePoint"/>
                        <mxPoint x="389" y="353" as="targetPoint"/>
                    </mxGeometry>
                </mxCell>
                <mxCell id="_kL3S8aDfBufA-84TGPT-10" value="" style="endArrow=classic;html=1;entryX=0;entryY=0.5;entryDx=0;entryDy=0;" parent="1" target="_kL3S8aDfBufA-84TGPT-4" edge="1">
                    <mxGeometry width="50" height="50" relative="1" as="geometry">
                        <mxPoint x="339" y="403" as="sourcePoint"/>
                        <mxPoint x="389" y="353" as="targetPoint"/>
                    </mxGeometry>
                </mxCell>
                <mxCell id="_kL3S8aDfBufA-84TGPT-11" value="" style="endArrow=classic;html=1;entryX=0;entryY=0.5;entryDx=0;entryDy=0;" parent="1" target="_kL3S8aDfBufA-84TGPT-5" edge="1">
                    <mxGeometry width="50" height="50" relative="1" as="geometry">
                        <mxPoint x="499" y="483" as="sourcePoint"/>
                        <mxPoint x="549" y="433" as="targetPoint"/>
                    </mxGeometry>
                </mxCell>
                <mxCell id="_kL3S8aDfBufA-84TGPT-12" value="" style="endArrow=classic;html=1;exitX=1;exitY=0.5;exitDx=0;exitDy=0;entryX=0;entryY=0.5;entryDx=0;entryDy=0;" parent="1" source="_kL3S8aDfBufA-84TGPT-5" target="_kL3S8aDfBufA-84TGPT-6" edge="1">
                    <mxGeometry width="50" height="50" relative="1" as="geometry">
                        <mxPoint x="459" y="653" as="sourcePoint"/>
                        <mxPoint x="509" y="603" as="targetPoint"/>
                    </mxGeometry>
                </mxCell>
            </root>
        </mxGraphModel>
    </diagram>
    <diagram id="p1KXxZvn2YLANnRofKRA" name="firmware">
        <mxGraphModel dx="960" dy="797" grid="1" gridSize="10" guides="1" tooltips="1" connect="1" arrows="1" fold="1" page="1" pageScale="1" pageWidth="850" pageHeight="1100" math="0" shadow="0">
            <root>
                <mxCell id="0"/>
                <mxCell id="1" parent="0"/>
                <mxCell id="JkPwhh8nhOZcb355uoTD-1" value="" style="rounded=0;whiteSpace=wrap;html=1;" parent="1" vertex="1">
                    <mxGeometry x="82" y="1145" width="503" height="236" as="geometry"/>
                </mxCell>
                <mxCell id="JkPwhh8nhOZcb355uoTD-2" value="" style="rounded=0;whiteSpace=wrap;html=1;" parent="1" vertex="1">
                    <mxGeometry x="190" y="110" width="120" height="370" as="geometry"/>
                </mxCell>
                <mxCell id="JkPwhh8nhOZcb355uoTD-3" value="SDCard" style="text;html=1;strokeColor=none;fillColor=none;align=center;verticalAlign=middle;whiteSpace=wrap;rounded=0;" parent="1" vertex="1">
                    <mxGeometry x="190" y="80" width="120" height="30" as="geometry"/>
                </mxCell>
                <mxCell id="JkPwhh8nhOZcb355uoTD-4" value="uboot" style="rounded=0;whiteSpace=wrap;html=1;fillColor=#fff2cc;strokeColor=#d6b656;" parent="1" vertex="1">
                    <mxGeometry x="190" y="120" width="120" height="70" as="geometry"/>
                </mxCell>
                <mxCell id="JkPwhh8nhOZcb355uoTD-5" value="0x400" style="text;html=1;strokeColor=none;fillColor=none;align=center;verticalAlign=middle;whiteSpace=wrap;rounded=0;" parent="1" vertex="1">
                    <mxGeometry x="130" y="110" width="60" height="20" as="geometry"/>
                </mxCell>
                <mxCell id="JkPwhh8nhOZcb355uoTD-6" value="env(0x2000)" style="rounded=0;whiteSpace=wrap;html=1;fillColor=#ffe6cc;strokeColor=#d79b00;" parent="1" vertex="1">
                    <mxGeometry x="190" y="190" width="120" height="30" as="geometry"/>
                </mxCell>
                <mxCell id="JkPwhh8nhOZcb355uoTD-7" value="0xE0000" style="text;html=1;strokeColor=none;fillColor=none;align=center;verticalAlign=middle;whiteSpace=wrap;rounded=0;" parent="1" vertex="1">
                    <mxGeometry x="120" y="180" width="60" height="20" as="geometry"/>
                </mxCell>
                <mxCell id="JkPwhh8nhOZcb355uoTD-8" value="/dev/mmcblk0p1&lt;br&gt;（kernel+dtb）" style="rounded=0;whiteSpace=wrap;html=1;align=center;fillColor=#dae8fc;strokeColor=#6c8ebf;" parent="1" vertex="1">
                    <mxGeometry x="190" y="235" width="120" height="95" as="geometry"/>
                </mxCell>
                <mxCell id="JkPwhh8nhOZcb355uoTD-9" value="0x100000" style="text;html=1;strokeColor=none;fillColor=none;align=center;verticalAlign=middle;whiteSpace=wrap;rounded=0;" parent="1" vertex="1">
                    <mxGeometry x="120" y="230" width="60" height="20" as="geometry"/>
                </mxCell>
                <mxCell id="JkPwhh8nhOZcb355uoTD-10" value="/dev/mmcblk0p2&lt;br&gt;（rootfs)" style="rounded=0;whiteSpace=wrap;html=1;align=center;fillColor=#e1d5e7;strokeColor=#9673a6;" parent="1" vertex="1">
                    <mxGeometry x="190" y="330" width="120" height="150" as="geometry"/>
                </mxCell>
                <mxCell id="JkPwhh8nhOZcb355uoTD-11" value="0x4000000" style="text;html=1;strokeColor=none;fillColor=none;align=center;verticalAlign=middle;whiteSpace=wrap;rounded=0;" parent="1" vertex="1">
                    <mxGeometry x="120" y="320" width="60" height="20" as="geometry"/>
                </mxCell>
                <mxCell id="JkPwhh8nhOZcb355uoTD-12" value="" style="rounded=0;whiteSpace=wrap;html=1;" parent="1" vertex="1">
                    <mxGeometry x="460" y="110" width="120" height="370" as="geometry"/>
                </mxCell>
                <mxCell id="JkPwhh8nhOZcb355uoTD-13" value="uboot" style="rounded=0;whiteSpace=wrap;html=1;fillColor=#fff2cc;strokeColor=#d6b656;" parent="1" vertex="1">
                    <mxGeometry x="460" y="110" width="120" height="100" as="geometry"/>
                </mxCell>
                <mxCell id="JkPwhh8nhOZcb355uoTD-14" value="kernel" style="rounded=0;whiteSpace=wrap;html=1;fillColor=#dae8fc;strokeColor=#6c8ebf;" parent="1" vertex="1">
                    <mxGeometry x="460" y="220" width="120" height="50" as="geometry"/>
                </mxCell>
                <mxCell id="JkPwhh8nhOZcb355uoTD-15" value="dts" style="rounded=0;whiteSpace=wrap;html=1;fillColor=#f8cecc;strokeColor=#b85450;" parent="1" vertex="1">
                    <mxGeometry x="460" y="270" width="120" height="20" as="geometry"/>
                </mxCell>
                <mxCell id="JkPwhh8nhOZcb355uoTD-16" value="DRAM" style="text;html=1;strokeColor=none;fillColor=none;align=center;verticalAlign=middle;whiteSpace=wrap;rounded=0;" parent="1" vertex="1">
                    <mxGeometry x="460" y="80" width="120" height="30" as="geometry"/>
                </mxCell>
                <mxCell id="JkPwhh8nhOZcb355uoTD-17" value="0x80800000" style="text;html=1;strokeColor=none;fillColor=none;align=center;verticalAlign=middle;whiteSpace=wrap;rounded=0;" parent="1" vertex="1">
                    <mxGeometry x="580" y="210" width="80" height="20" as="geometry"/>
                </mxCell>
                <mxCell id="JkPwhh8nhOZcb355uoTD-18" value="0x83000000" style="text;html=1;strokeColor=none;fillColor=none;align=center;verticalAlign=middle;whiteSpace=wrap;rounded=0;" parent="1" vertex="1">
                    <mxGeometry x="570" y="260" width="100" height="20" as="geometry"/>
                </mxCell>
                <mxCell id="JkPwhh8nhOZcb355uoTD-19" value="" style="endArrow=none;html=1;entryX=-0.026;entryY=0.016;entryDx=0;entryDy=0;entryPerimeter=0;exitX=1;exitY=0;exitDx=0;exitDy=0;dashed=1;" parent="1" source="JkPwhh8nhOZcb355uoTD-4" target="JkPwhh8nhOZcb355uoTD-13" edge="1">
                    <mxGeometry width="50" height="50" relative="1" as="geometry">
                        <mxPoint x="230" y="450" as="sourcePoint"/>
                        <mxPoint x="280" y="400" as="targetPoint"/>
                    </mxGeometry>
                </mxCell>
                <mxCell id="JkPwhh8nhOZcb355uoTD-20" value="" style="endArrow=none;html=1;entryX=0;entryY=1;entryDx=0;entryDy=0;exitX=1;exitY=0;exitDx=0;exitDy=0;dashed=1;" parent="1" source="JkPwhh8nhOZcb355uoTD-6" target="JkPwhh8nhOZcb355uoTD-13" edge="1">
                    <mxGeometry width="50" height="50" relative="1" as="geometry">
                        <mxPoint x="310" y="188.39999999999998" as="sourcePoint"/>
                        <mxPoint x="456.88" y="180" as="targetPoint"/>
                    </mxGeometry>
                </mxCell>
                <mxCell id="JkPwhh8nhOZcb355uoTD-21" value="" style="endArrow=none;html=1;entryX=0;entryY=0;entryDx=0;entryDy=0;exitX=1;exitY=0;exitDx=0;exitDy=0;dashed=1;" parent="1" target="JkPwhh8nhOZcb355uoTD-14" edge="1">
                    <mxGeometry width="50" height="50" relative="1" as="geometry">
                        <mxPoint x="310" y="235" as="sourcePoint"/>
                        <mxPoint x="456.8800000000001" y="226.60000000000014" as="targetPoint"/>
                    </mxGeometry>
                </mxCell>
                <mxCell id="JkPwhh8nhOZcb355uoTD-22" value="" style="endArrow=none;html=1;entryX=0;entryY=1;entryDx=0;entryDy=0;exitX=1;exitY=1;exitDx=0;exitDy=0;dashed=1;" parent="1" source="JkPwhh8nhOZcb355uoTD-8" target="JkPwhh8nhOZcb355uoTD-15" edge="1">
                    <mxGeometry width="50" height="50" relative="1" as="geometry">
                        <mxPoint x="310" y="305" as="sourcePoint"/>
                        <mxPoint x="460" y="280" as="targetPoint"/>
                    </mxGeometry>
                </mxCell>
                <mxCell id="JkPwhh8nhOZcb355uoTD-23" value="0x80000000" style="text;html=1;strokeColor=none;fillColor=none;align=center;verticalAlign=middle;whiteSpace=wrap;rounded=0;" parent="1" vertex="1">
                    <mxGeometry x="580" y="100" width="80" height="20" as="geometry"/>
                </mxCell>
                <mxCell id="JkPwhh8nhOZcb355uoTD-24" value="" style="rounded=0;whiteSpace=wrap;html=1;" parent="1" vertex="1">
                    <mxGeometry x="190" y="550" width="120" height="370" as="geometry"/>
                </mxCell>
                <mxCell id="JkPwhh8nhOZcb355uoTD-25" value="EMMC" style="text;html=1;strokeColor=none;fillColor=none;align=center;verticalAlign=middle;whiteSpace=wrap;rounded=0;" parent="1" vertex="1">
                    <mxGeometry x="190" y="520" width="120" height="30" as="geometry"/>
                </mxCell>
                <mxCell id="JkPwhh8nhOZcb355uoTD-26" value="uboot" style="rounded=0;whiteSpace=wrap;html=1;fillColor=#fff2cc;strokeColor=#d6b656;" parent="1" vertex="1">
                    <mxGeometry x="190" y="560" width="120" height="70" as="geometry"/>
                </mxCell>
                <mxCell id="JkPwhh8nhOZcb355uoTD-27" value="0x400" style="text;html=1;strokeColor=none;fillColor=none;align=center;verticalAlign=middle;whiteSpace=wrap;rounded=0;" parent="1" vertex="1">
                    <mxGeometry x="130" y="550" width="60" height="20" as="geometry"/>
                </mxCell>
                <mxCell id="JkPwhh8nhOZcb355uoTD-28" value="env(0x2000)" style="rounded=0;whiteSpace=wrap;html=1;fillColor=#ffe6cc;strokeColor=#d79b00;" parent="1" vertex="1">
                    <mxGeometry x="190" y="630" width="120" height="30" as="geometry"/>
                </mxCell>
                <mxCell id="JkPwhh8nhOZcb355uoTD-29" value="0xE0000" style="text;html=1;strokeColor=none;fillColor=none;align=center;verticalAlign=middle;whiteSpace=wrap;rounded=0;" parent="1" vertex="1">
                    <mxGeometry x="120" y="620" width="60" height="20" as="geometry"/>
                </mxCell>
                <mxCell id="JkPwhh8nhOZcb355uoTD-30" value="/dev/mmcblk1p1&lt;br&gt;（kernel+dtb）" style="rounded=0;whiteSpace=wrap;html=1;align=center;fillColor=#dae8fc;strokeColor=#6c8ebf;" parent="1" vertex="1">
                    <mxGeometry x="190" y="675" width="120" height="95" as="geometry"/>
                </mxCell>
                <mxCell id="JkPwhh8nhOZcb355uoTD-31" value="0x100000" style="text;html=1;strokeColor=none;fillColor=none;align=center;verticalAlign=middle;whiteSpace=wrap;rounded=0;" parent="1" vertex="1">
                    <mxGeometry x="120" y="670" width="60" height="20" as="geometry"/>
                </mxCell>
                <mxCell id="JkPwhh8nhOZcb355uoTD-32" value="/dev/mmcblk1p2&lt;br&gt;（rootfs)" style="rounded=0;whiteSpace=wrap;html=1;align=center;fillColor=#e1d5e7;strokeColor=#9673a6;" parent="1" vertex="1">
                    <mxGeometry x="190" y="770" width="120" height="150" as="geometry"/>
                </mxCell>
                <mxCell id="JkPwhh8nhOZcb355uoTD-33" value="0x4000000" style="text;html=1;strokeColor=none;fillColor=none;align=center;verticalAlign=middle;whiteSpace=wrap;rounded=0;" parent="1" vertex="1">
                    <mxGeometry x="120" y="760" width="60" height="20" as="geometry"/>
                </mxCell>
                <mxCell id="JkPwhh8nhOZcb355uoTD-34" value="" style="rounded=0;whiteSpace=wrap;html=1;" parent="1" vertex="1">
                    <mxGeometry x="460" y="550" width="120" height="370" as="geometry"/>
                </mxCell>
                <mxCell id="JkPwhh8nhOZcb355uoTD-35" value="uboot" style="rounded=0;whiteSpace=wrap;html=1;fillColor=#fff2cc;strokeColor=#d6b656;" parent="1" vertex="1">
                    <mxGeometry x="460" y="550" width="120" height="100" as="geometry"/>
                </mxCell>
                <mxCell id="JkPwhh8nhOZcb355uoTD-36" value="kernel" style="rounded=0;whiteSpace=wrap;html=1;fillColor=#dae8fc;strokeColor=#6c8ebf;" parent="1" vertex="1">
                    <mxGeometry x="460" y="660" width="120" height="50" as="geometry"/>
                </mxCell>
                <mxCell id="JkPwhh8nhOZcb355uoTD-37" value="dts" style="rounded=0;whiteSpace=wrap;html=1;fillColor=#f8cecc;strokeColor=#b85450;" parent="1" vertex="1">
                    <mxGeometry x="460" y="710" width="120" height="20" as="geometry"/>
                </mxCell>
                <mxCell id="JkPwhh8nhOZcb355uoTD-38" value="DRAM" style="text;html=1;strokeColor=none;fillColor=none;align=center;verticalAlign=middle;whiteSpace=wrap;rounded=0;" parent="1" vertex="1">
                    <mxGeometry x="460" y="520" width="120" height="30" as="geometry"/>
                </mxCell>
                <mxCell id="JkPwhh8nhOZcb355uoTD-39" value="0x80800000" style="text;html=1;strokeColor=none;fillColor=none;align=center;verticalAlign=middle;whiteSpace=wrap;rounded=0;" parent="1" vertex="1">
                    <mxGeometry x="590" y="650" width="80" height="20" as="geometry"/>
                </mxCell>
                <mxCell id="JkPwhh8nhOZcb355uoTD-40" value="0x83000000" style="text;html=1;strokeColor=none;fillColor=none;align=center;verticalAlign=middle;whiteSpace=wrap;rounded=0;" parent="1" vertex="1">
                    <mxGeometry x="580" y="700" width="100" height="20" as="geometry"/>
                </mxCell>
                <mxCell id="JkPwhh8nhOZcb355uoTD-41" value="" style="endArrow=none;html=1;entryX=-0.026;entryY=0.016;entryDx=0;entryDy=0;entryPerimeter=0;exitX=1;exitY=0;exitDx=0;exitDy=0;dashed=1;" parent="1" source="JkPwhh8nhOZcb355uoTD-26" target="JkPwhh8nhOZcb355uoTD-35" edge="1">
                    <mxGeometry width="50" height="50" relative="1" as="geometry">
                        <mxPoint x="230" y="890" as="sourcePoint"/>
                        <mxPoint x="280" y="840" as="targetPoint"/>
                    </mxGeometry>
                </mxCell>
                <mxCell id="JkPwhh8nhOZcb355uoTD-42" value="" style="endArrow=none;html=1;entryX=0;entryY=1;entryDx=0;entryDy=0;exitX=1;exitY=0;exitDx=0;exitDy=0;dashed=1;" parent="1" source="JkPwhh8nhOZcb355uoTD-28" target="JkPwhh8nhOZcb355uoTD-35" edge="1">
                    <mxGeometry width="50" height="50" relative="1" as="geometry">
                        <mxPoint x="310" y="628.4" as="sourcePoint"/>
                        <mxPoint x="456.88" y="620" as="targetPoint"/>
                    </mxGeometry>
                </mxCell>
                <mxCell id="JkPwhh8nhOZcb355uoTD-43" value="" style="endArrow=none;html=1;entryX=0;entryY=0;entryDx=0;entryDy=0;exitX=1;exitY=0;exitDx=0;exitDy=0;dashed=1;" parent="1" target="JkPwhh8nhOZcb355uoTD-36" edge="1">
                    <mxGeometry width="50" height="50" relative="1" as="geometry">
                        <mxPoint x="310" y="675" as="sourcePoint"/>
                        <mxPoint x="456.8800000000001" y="666.6000000000001" as="targetPoint"/>
                    </mxGeometry>
                </mxCell>
                <mxCell id="JkPwhh8nhOZcb355uoTD-44" value="" style="endArrow=none;html=1;entryX=0;entryY=1;entryDx=0;entryDy=0;exitX=1;exitY=1;exitDx=0;exitDy=0;dashed=1;" parent="1" source="JkPwhh8nhOZcb355uoTD-30" target="JkPwhh8nhOZcb355uoTD-37" edge="1">
                    <mxGeometry width="50" height="50" relative="1" as="geometry">
                        <mxPoint x="310" y="745" as="sourcePoint"/>
                        <mxPoint x="460" y="720" as="targetPoint"/>
                    </mxGeometry>
                </mxCell>
                <mxCell id="JkPwhh8nhOZcb355uoTD-45" value="0x80000000" style="text;html=1;strokeColor=none;fillColor=none;align=center;verticalAlign=middle;whiteSpace=wrap;rounded=0;" parent="1" vertex="1">
                    <mxGeometry x="580" y="540" width="80" height="20" as="geometry"/>
                </mxCell>
                <mxCell id="JkPwhh8nhOZcb355uoTD-46" value="" style="rounded=0;whiteSpace=wrap;html=1;" parent="1" vertex="1">
                    <mxGeometry x="175" y="1221" width="120" height="137" as="geometry"/>
                </mxCell>
                <mxCell id="JkPwhh8nhOZcb355uoTD-47" value="SDCard" style="text;html=1;strokeColor=none;fillColor=none;align=center;verticalAlign=middle;whiteSpace=wrap;rounded=0;" parent="1" vertex="1">
                    <mxGeometry x="175" y="1194" width="120" height="30" as="geometry"/>
                </mxCell>
                <mxCell id="JkPwhh8nhOZcb355uoTD-48" value="U-Boot" style="rounded=0;whiteSpace=wrap;html=1;fillColor=#fff2cc;strokeColor=#d6b656;" parent="1" vertex="1">
                    <mxGeometry x="175" y="1233" width="120" height="38" as="geometry"/>
                </mxCell>
                <mxCell id="JkPwhh8nhOZcb355uoTD-49" value="0x4000" style="text;html=1;align=center;verticalAlign=middle;whiteSpace=wrap;rounded=0;" parent="1" vertex="1">
                    <mxGeometry x="128.5" y="1224" width="43" height="17" as="geometry"/>
                </mxCell>
                <mxCell id="JkPwhh8nhOZcb355uoTD-50" value=".。。" style="rounded=0;whiteSpace=wrap;html=1;fillColor=#f5f5f5;strokeColor=#666666;fontColor=#333333;" parent="1" vertex="1">
                    <mxGeometry x="175" y="1282" width="120" height="38" as="geometry"/>
                </mxCell>
                <mxCell id="JkPwhh8nhOZcb355uoTD-51" value="" style="rounded=0;whiteSpace=wrap;html=1;" parent="1" vertex="1">
                    <mxGeometry x="383" y="1224" width="120" height="136" as="geometry"/>
                </mxCell>
                <mxCell id="JkPwhh8nhOZcb355uoTD-52" value="DRAM" style="text;html=1;strokeColor=none;fillColor=none;align=center;verticalAlign=middle;whiteSpace=wrap;rounded=0;" parent="1" vertex="1">
                    <mxGeometry x="381" y="1196" width="120" height="30" as="geometry"/>
                </mxCell>
                <mxCell id="JkPwhh8nhOZcb355uoTD-53" value="U-Boot" style="rounded=0;whiteSpace=wrap;html=1;fillColor=#fff2cc;strokeColor=#d6b656;" parent="1" vertex="1">
                    <mxGeometry x="383" y="1223" width="120" height="30" as="geometry"/>
                </mxCell>
                <mxCell id="JkPwhh8nhOZcb355uoTD-54" value="" style="shape=flexArrow;endArrow=classic;html=1;entryX=0;entryY=0.5;entryDx=0;entryDy=0;width=4;" parent="1" target="JkPwhh8nhOZcb355uoTD-53" edge="1">
                    <mxGeometry width="50" height="50" relative="1" as="geometry">
                        <mxPoint x="297" y="1251" as="sourcePoint"/>
                        <mxPoint x="347" y="1201" as="targetPoint"/>
                    </mxGeometry>
                </mxCell>
                <mxCell id="JkPwhh8nhOZcb355uoTD-55" value="0x80000000" style="text;html=1;align=center;verticalAlign=middle;whiteSpace=wrap;rounded=0;" parent="1" vertex="1">
                    <mxGeometry x="501" y="1211" width="85" height="30" as="geometry"/>
                </mxCell>
                <mxCell id="JkPwhh8nhOZcb355uoTD-56" value="BootROM" style="text;html=1;align=center;verticalAlign=middle;whiteSpace=wrap;rounded=0;" parent="1" vertex="1">
                    <mxGeometry x="308" y="1196" width="60" height="30" as="geometry"/>
                </mxCell>
                <mxCell id="JkPwhh8nhOZcb355uoTD-57" value="BootROM加载U-Boot" style="text;html=1;align=center;verticalAlign=middle;whiteSpace=wrap;rounded=0;" parent="1" vertex="1">
                    <mxGeometry x="130" y="1157" width="122" height="30" as="geometry"/>
                </mxCell>
                <mxCell id="JkPwhh8nhOZcb355uoTD-58" value="" style="rounded=0;whiteSpace=wrap;html=1;" parent="1" vertex="1">
                    <mxGeometry x="81" y="1687" width="505" height="233" as="geometry"/>
                </mxCell>
                <mxCell id="JkPwhh8nhOZcb355uoTD-59" value="" style="rounded=0;whiteSpace=wrap;html=1;" parent="1" vertex="1">
                    <mxGeometry x="174" y="1749" width="120" height="159" as="geometry"/>
                </mxCell>
                <mxCell id="JkPwhh8nhOZcb355uoTD-60" value="SDCard" style="text;html=1;strokeColor=none;fillColor=none;align=center;verticalAlign=middle;whiteSpace=wrap;rounded=0;" parent="1" vertex="1">
                    <mxGeometry x="174" y="1722" width="120" height="30" as="geometry"/>
                </mxCell>
                <mxCell id="JkPwhh8nhOZcb355uoTD-61" value="U-Boot" style="rounded=0;whiteSpace=wrap;html=1;fillColor=#fff2cc;strokeColor=#d6b656;" parent="1" vertex="1">
                    <mxGeometry x="174" y="1761" width="120" height="38" as="geometry"/>
                </mxCell>
                <mxCell id="JkPwhh8nhOZcb355uoTD-62" value="0x4000" style="text;html=1;align=center;verticalAlign=middle;whiteSpace=wrap;rounded=0;" parent="1" vertex="1">
                    <mxGeometry x="127.5" y="1752" width="43" height="17" as="geometry"/>
                </mxCell>
                <mxCell id="JkPwhh8nhOZcb355uoTD-63" value="Kernel/dtb" style="rounded=0;whiteSpace=wrap;html=1;fillColor=#f5f5f5;strokeColor=#666666;fontColor=#333333;" parent="1" vertex="1">
                    <mxGeometry x="174" y="1810" width="120" height="38" as="geometry"/>
                </mxCell>
                <mxCell id="JkPwhh8nhOZcb355uoTD-64" value="" style="rounded=0;whiteSpace=wrap;html=1;" parent="1" vertex="1">
                    <mxGeometry x="382" y="1752" width="120" height="147" as="geometry"/>
                </mxCell>
                <mxCell id="JkPwhh8nhOZcb355uoTD-65" value="DRAM" style="text;html=1;strokeColor=none;fillColor=none;align=center;verticalAlign=middle;whiteSpace=wrap;rounded=0;" parent="1" vertex="1">
                    <mxGeometry x="380" y="1724" width="120" height="30" as="geometry"/>
                </mxCell>
                <mxCell id="JkPwhh8nhOZcb355uoTD-66" value="U-Boot" style="rounded=0;whiteSpace=wrap;html=1;fillColor=#fff2cc;strokeColor=#d6b656;" parent="1" vertex="1">
                    <mxGeometry x="382" y="1752" width="120" height="27" as="geometry"/>
                </mxCell>
                <mxCell id="JkPwhh8nhOZcb355uoTD-67" value="0x80000000" style="text;html=1;align=center;verticalAlign=middle;whiteSpace=wrap;rounded=0;" parent="1" vertex="1">
                    <mxGeometry x="500" y="1739" width="85" height="30" as="geometry"/>
                </mxCell>
                <mxCell id="JkPwhh8nhOZcb355uoTD-68" value="Kernel从SDCard挂载文件系统" style="text;html=1;align=center;verticalAlign=middle;whiteSpace=wrap;rounded=0;" parent="1" vertex="1">
                    <mxGeometry x="101" y="1692" width="199" height="30" as="geometry"/>
                </mxCell>
                <mxCell id="JkPwhh8nhOZcb355uoTD-69" value="/dev/mmc1bk1" style="text;html=1;align=center;verticalAlign=middle;whiteSpace=wrap;rounded=0;" parent="1" vertex="1">
                    <mxGeometry x="110" y="1806" width="43" height="17" as="geometry"/>
                </mxCell>
                <mxCell id="JkPwhh8nhOZcb355uoTD-70" value="dtb" style="rounded=0;whiteSpace=wrap;html=1;fillColor=#fff2cc;strokeColor=#d6b656;" parent="1" vertex="1">
                    <mxGeometry x="382" y="1838" width="120" height="21" as="geometry"/>
                </mxCell>
                <mxCell id="JkPwhh8nhOZcb355uoTD-71" value="Kernel" style="rounded=0;whiteSpace=wrap;html=1;fillColor=#fff2cc;strokeColor=#d6b656;opacity=80;" parent="1" vertex="1">
                    <mxGeometry x="382" y="1791" width="120" height="44" as="geometry"/>
                </mxCell>
                <mxCell id="JkPwhh8nhOZcb355uoTD-72" value="kernel&lt;div&gt;挂载rootfs&lt;/div&gt;" style="text;html=1;align=center;verticalAlign=middle;whiteSpace=wrap;rounded=0;" parent="1" vertex="1">
                    <mxGeometry x="303.5" y="1793" width="60" height="30" as="geometry"/>
                </mxCell>
                <mxCell id="JkPwhh8nhOZcb355uoTD-73" value="0x808&lt;span style=&quot;background-color: transparent;&quot;&gt;00000&lt;/span&gt;" style="text;html=1;align=center;verticalAlign=middle;whiteSpace=wrap;rounded=0;" parent="1" vertex="1">
                    <mxGeometry x="500" y="1779" width="85" height="30" as="geometry"/>
                </mxCell>
                <mxCell id="JkPwhh8nhOZcb355uoTD-74" value="0x830&lt;span style=&quot;background-color: transparent;&quot;&gt;00000&lt;/span&gt;" style="text;html=1;align=center;verticalAlign=middle;whiteSpace=wrap;rounded=0;" parent="1" vertex="1">
                    <mxGeometry x="501" y="1823" width="82" height="30" as="geometry"/>
                </mxCell>
                <mxCell id="JkPwhh8nhOZcb355uoTD-75" value="" style="rounded=0;whiteSpace=wrap;html=1;" parent="1" vertex="1">
                    <mxGeometry x="81" y="1407" width="505" height="230" as="geometry"/>
                </mxCell>
                <mxCell id="JkPwhh8nhOZcb355uoTD-76" value="" style="rounded=0;whiteSpace=wrap;html=1;" parent="1" vertex="1">
                    <mxGeometry x="174" y="1483" width="120" height="62" as="geometry"/>
                </mxCell>
                <mxCell id="JkPwhh8nhOZcb355uoTD-77" value="SDCard" style="text;html=1;strokeColor=none;fillColor=none;align=center;verticalAlign=middle;whiteSpace=wrap;rounded=0;" parent="1" vertex="1">
                    <mxGeometry x="174" y="1456" width="120" height="30" as="geometry"/>
                </mxCell>
                <mxCell id="JkPwhh8nhOZcb355uoTD-78" value="U-Boot" style="rounded=0;whiteSpace=wrap;html=1;fillColor=#fff2cc;strokeColor=#d6b656;" parent="1" vertex="1">
                    <mxGeometry x="174" y="1495" width="120" height="38" as="geometry"/>
                </mxCell>
                <mxCell id="JkPwhh8nhOZcb355uoTD-79" value="0x4000" style="text;html=1;align=center;verticalAlign=middle;whiteSpace=wrap;rounded=0;" parent="1" vertex="1">
                    <mxGeometry x="127.5" y="1486" width="43" height="17" as="geometry"/>
                </mxCell>
                <mxCell id="JkPwhh8nhOZcb355uoTD-80" value="" style="rounded=0;whiteSpace=wrap;html=1;" parent="1" vertex="1">
                    <mxGeometry x="382" y="1486" width="120" height="136" as="geometry"/>
                </mxCell>
                <mxCell id="JkPwhh8nhOZcb355uoTD-81" value="DRAM" style="text;html=1;strokeColor=none;fillColor=none;align=center;verticalAlign=middle;whiteSpace=wrap;rounded=0;" parent="1" vertex="1">
                    <mxGeometry x="380" y="1458" width="120" height="30" as="geometry"/>
                </mxCell>
                <mxCell id="JkPwhh8nhOZcb355uoTD-82" value="U-Boot" style="rounded=0;whiteSpace=wrap;html=1;fillColor=#fff2cc;strokeColor=#d6b656;" parent="1" vertex="1">
                    <mxGeometry x="382" y="1486" width="120" height="27" as="geometry"/>
                </mxCell>
                <mxCell id="JkPwhh8nhOZcb355uoTD-83" value="" style="shape=flexArrow;endArrow=classic;html=1;entryX=0;entryY=0.5;entryDx=0;entryDy=0;width=4;exitX=1;exitY=0.25;exitDx=0;exitDy=0;" parent="1" source="JkPwhh8nhOZcb355uoTD-93" target="JkPwhh8nhOZcb355uoTD-87" edge="1">
                    <mxGeometry width="50" height="50" relative="1" as="geometry">
                        <mxPoint x="293.8800000000001" y="1555.9699999999998" as="sourcePoint"/>
                        <mxPoint x="345" y="1515.5" as="targetPoint"/>
                    </mxGeometry>
                </mxCell>
                <mxCell id="JkPwhh8nhOZcb355uoTD-84" value="0x80000000" style="text;html=1;align=center;verticalAlign=middle;whiteSpace=wrap;rounded=0;" parent="1" vertex="1">
                    <mxGeometry x="500" y="1473" width="85" height="30" as="geometry"/>
                </mxCell>
                <mxCell id="JkPwhh8nhOZcb355uoTD-85" value="Uboot从网络加载内核和设备树" style="text;html=1;align=center;verticalAlign=middle;whiteSpace=wrap;rounded=0;" parent="1" vertex="1">
                    <mxGeometry x="101" y="1426" width="199" height="30" as="geometry"/>
                </mxCell>
                <mxCell id="JkPwhh8nhOZcb355uoTD-86" value="dtb" style="rounded=0;whiteSpace=wrap;html=1;fillColor=#fff2cc;strokeColor=#d6b656;" parent="1" vertex="1">
                    <mxGeometry x="382" y="1572" width="120" height="21" as="geometry"/>
                </mxCell>
                <mxCell id="JkPwhh8nhOZcb355uoTD-87" value="Kernel" style="rounded=0;whiteSpace=wrap;html=1;fillColor=#fff2cc;strokeColor=#d6b656;opacity=80;" parent="1" vertex="1">
                    <mxGeometry x="382" y="1525" width="120" height="44" as="geometry"/>
                </mxCell>
                <mxCell id="JkPwhh8nhOZcb355uoTD-88" value="" style="shape=flexArrow;endArrow=classic;html=1;entryX=0;entryY=0.5;entryDx=0;entryDy=0;width=4;exitX=1;exitY=0.5;exitDx=0;exitDy=0;" parent="1" source="JkPwhh8nhOZcb355uoTD-93" target="JkPwhh8nhOZcb355uoTD-86" edge="1">
                    <mxGeometry width="50" height="50" relative="1" as="geometry">
                        <mxPoint x="294" y="1572.5" as="sourcePoint"/>
                        <mxPoint x="392" y="1557" as="targetPoint"/>
                    </mxGeometry>
                </mxCell>
                <mxCell id="JkPwhh8nhOZcb355uoTD-89" value="U-boot&lt;div&gt;tftp&lt;/div&gt;" style="text;html=1;align=center;verticalAlign=middle;whiteSpace=wrap;rounded=0;" parent="1" vertex="1">
                    <mxGeometry x="300" y="1522" width="60" height="30" as="geometry"/>
                </mxCell>
                <mxCell id="JkPwhh8nhOZcb355uoTD-90" value="0x808&lt;span style=&quot;background-color: transparent;&quot;&gt;00000&lt;/span&gt;" style="text;html=1;align=center;verticalAlign=middle;whiteSpace=wrap;rounded=0;" parent="1" vertex="1">
                    <mxGeometry x="500" y="1513" width="85" height="30" as="geometry"/>
                </mxCell>
                <mxCell id="JkPwhh8nhOZcb355uoTD-91" value="0x830&lt;span style=&quot;background-color: transparent;&quot;&gt;00000&lt;/span&gt;" style="text;html=1;align=center;verticalAlign=middle;whiteSpace=wrap;rounded=0;" parent="1" vertex="1">
                    <mxGeometry x="501" y="1557" width="82" height="30" as="geometry"/>
                </mxCell>
                <mxCell id="JkPwhh8nhOZcb355uoTD-92" value="" style="rounded=0;whiteSpace=wrap;html=1;" parent="1" vertex="1">
                    <mxGeometry x="170.5" y="1560" width="120" height="62" as="geometry"/>
                </mxCell>
                <mxCell id="JkPwhh8nhOZcb355uoTD-93" value="Kernel/dtb" style="rounded=0;whiteSpace=wrap;html=1;fillColor=#B3B3B3;strokeColor=#B3B3B3;opacity=80;" parent="1" vertex="1">
                    <mxGeometry x="170.5" y="1572" width="120" height="30" as="geometry"/>
                </mxCell>
                <mxCell id="JkPwhh8nhOZcb355uoTD-94" value="tftp_server" style="text;html=1;align=center;verticalAlign=middle;whiteSpace=wrap;rounded=0;" parent="1" vertex="1">
                    <mxGeometry x="107" y="1563.5" width="55" height="17" as="geometry"/>
                </mxCell>
                <mxCell id="JkPwhh8nhOZcb355uoTD-95" value="rootfs" style="rounded=0;whiteSpace=wrap;html=1;fillColor=#f5f5f5;strokeColor=#666666;fontColor=#333333;" parent="1" vertex="1">
                    <mxGeometry x="174" y="1857" width="120" height="38" as="geometry"/>
                </mxCell>
                <mxCell id="JkPwhh8nhOZcb355uoTD-96" value="/dev/mmc1bk2" style="text;html=1;align=center;verticalAlign=middle;whiteSpace=wrap;rounded=0;" parent="1" vertex="1">
                    <mxGeometry x="110" y="1848" width="43" height="17" as="geometry"/>
                </mxCell>
                <mxCell id="JkPwhh8nhOZcb355uoTD-97" value="" style="shape=flexArrow;endArrow=classic;html=1;width=4;exitX=1;exitY=0.25;exitDx=0;exitDy=0;entryX=1;entryY=0.5;entryDx=0;entryDy=0;" parent="1" target="JkPwhh8nhOZcb355uoTD-95" edge="1">
                    <mxGeometry width="50" height="50" relative="1" as="geometry">
                        <mxPoint x="382" y="1815" as="sourcePoint"/>
                        <mxPoint x="348.8421052631578" y="1878" as="targetPoint"/>
                    </mxGeometry>
                </mxCell>
                <mxCell id="JkPwhh8nhOZcb355uoTD-98" value="" style="rounded=0;whiteSpace=wrap;html=1;" parent="1" vertex="1">
                    <mxGeometry x="89" y="2274" width="505" height="329" as="geometry"/>
                </mxCell>
                <mxCell id="JkPwhh8nhOZcb355uoTD-99" value="" style="rounded=0;whiteSpace=wrap;html=1;" parent="1" vertex="1">
                    <mxGeometry x="182" y="2350" width="120" height="62" as="geometry"/>
                </mxCell>
                <mxCell id="JkPwhh8nhOZcb355uoTD-100" value="SDCard" style="text;html=1;strokeColor=none;fillColor=none;align=center;verticalAlign=middle;whiteSpace=wrap;rounded=0;" parent="1" vertex="1">
                    <mxGeometry x="182" y="2323" width="120" height="30" as="geometry"/>
                </mxCell>
                <mxCell id="JkPwhh8nhOZcb355uoTD-101" value="U-Boot" style="rounded=0;whiteSpace=wrap;html=1;fillColor=#fff2cc;strokeColor=#d6b656;" parent="1" vertex="1">
                    <mxGeometry x="182" y="2362" width="120" height="38" as="geometry"/>
                </mxCell>
                <mxCell id="JkPwhh8nhOZcb355uoTD-102" value="0x4000" style="text;html=1;align=center;verticalAlign=middle;whiteSpace=wrap;rounded=0;" parent="1" vertex="1">
                    <mxGeometry x="135.5" y="2353" width="43" height="17" as="geometry"/>
                </mxCell>
                <mxCell id="JkPwhh8nhOZcb355uoTD-103" value="" style="rounded=0;whiteSpace=wrap;html=1;" parent="1" vertex="1">
                    <mxGeometry x="390" y="2353" width="120" height="217" as="geometry"/>
                </mxCell>
                <mxCell id="JkPwhh8nhOZcb355uoTD-104" value="DRAM" style="text;html=1;strokeColor=none;fillColor=none;align=center;verticalAlign=middle;whiteSpace=wrap;rounded=0;" parent="1" vertex="1">
                    <mxGeometry x="388" y="2325" width="120" height="30" as="geometry"/>
                </mxCell>
                <mxCell id="JkPwhh8nhOZcb355uoTD-105" value="U-Boot" style="rounded=0;whiteSpace=wrap;html=1;fillColor=#fff2cc;strokeColor=#d6b656;" parent="1" vertex="1">
                    <mxGeometry x="390" y="2353" width="120" height="27" as="geometry"/>
                </mxCell>
                <mxCell id="JkPwhh8nhOZcb355uoTD-106" value="0x80000000" style="text;html=1;align=center;verticalAlign=middle;whiteSpace=wrap;rounded=0;" parent="1" vertex="1">
                    <mxGeometry x="508" y="2340" width="85" height="30" as="geometry"/>
                </mxCell>
                <mxCell id="JkPwhh8nhOZcb355uoTD-107" value="Kernel从网络挂载文件系统" style="text;html=1;align=center;verticalAlign=middle;whiteSpace=wrap;rounded=0;" parent="1" vertex="1">
                    <mxGeometry x="109" y="2293" width="199" height="30" as="geometry"/>
                </mxCell>
                <mxCell id="JkPwhh8nhOZcb355uoTD-108" value="dtb" style="rounded=0;whiteSpace=wrap;html=1;fillColor=#fff2cc;strokeColor=#d6b656;" parent="1" vertex="1">
                    <mxGeometry x="390" y="2439" width="120" height="21" as="geometry"/>
                </mxCell>
                <mxCell id="JkPwhh8nhOZcb355uoTD-109" value="Kernel" style="rounded=0;whiteSpace=wrap;html=1;fillColor=#fff2cc;strokeColor=#d6b656;opacity=80;" parent="1" vertex="1">
                    <mxGeometry x="390" y="2392" width="120" height="44" as="geometry"/>
                </mxCell>
                <mxCell id="JkPwhh8nhOZcb355uoTD-110" value="0x808&lt;span style=&quot;background-color: transparent;&quot;&gt;00000&lt;/span&gt;" style="text;html=1;align=center;verticalAlign=middle;whiteSpace=wrap;rounded=0;" parent="1" vertex="1">
                    <mxGeometry x="508" y="2380" width="85" height="30" as="geometry"/>
                </mxCell>
                <mxCell id="JkPwhh8nhOZcb355uoTD-111" value="0x830&lt;span style=&quot;background-color: transparent;&quot;&gt;00000&lt;/span&gt;" style="text;html=1;align=center;verticalAlign=middle;whiteSpace=wrap;rounded=0;" parent="1" vertex="1">
                    <mxGeometry x="509" y="2424" width="82" height="30" as="geometry"/>
                </mxCell>
                <mxCell id="JkPwhh8nhOZcb355uoTD-112" value="" style="rounded=0;whiteSpace=wrap;html=1;" parent="1" vertex="1">
                    <mxGeometry x="183.5" y="2427" width="120" height="62" as="geometry"/>
                </mxCell>
                <mxCell id="JkPwhh8nhOZcb355uoTD-113" value="Kernel/dtb" style="rounded=0;whiteSpace=wrap;html=1;fillColor=#B3B3B3;strokeColor=#B3B3B3;opacity=80;" parent="1" vertex="1">
                    <mxGeometry x="183.5" y="2443" width="120" height="30" as="geometry"/>
                </mxCell>
                <mxCell id="JkPwhh8nhOZcb355uoTD-114" value="tftp_server" style="text;html=1;align=center;verticalAlign=middle;whiteSpace=wrap;rounded=0;" parent="1" vertex="1">
                    <mxGeometry x="115" y="2430.5" width="55" height="17" as="geometry"/>
                </mxCell>
                <mxCell id="JkPwhh8nhOZcb355uoTD-115" value="" style="rounded=0;whiteSpace=wrap;html=1;" parent="1" vertex="1">
                    <mxGeometry x="178.5" y="2515" width="120" height="55" as="geometry"/>
                </mxCell>
                <mxCell id="JkPwhh8nhOZcb355uoTD-116" value="rootfs" style="rounded=0;whiteSpace=wrap;html=1;fillColor=#B3B3B3;strokeColor=#B3B3B3;opacity=80;" parent="1" vertex="1">
                    <mxGeometry x="178.5" y="2527" width="120" height="30" as="geometry"/>
                </mxCell>
                <mxCell id="JkPwhh8nhOZcb355uoTD-117" value="nfs_server" style="text;html=1;align=center;verticalAlign=middle;whiteSpace=wrap;rounded=0;" parent="1" vertex="1">
                    <mxGeometry x="116.5" y="2503" width="55" height="17" as="geometry"/>
                </mxCell>
                <mxCell id="JkPwhh8nhOZcb355uoTD-118" value="" style="shape=flexArrow;endArrow=classic;html=1;width=4;entryX=1;entryY=0.5;entryDx=0;entryDy=0;" parent="1" target="JkPwhh8nhOZcb355uoTD-116" edge="1">
                    <mxGeometry width="50" height="50" relative="1" as="geometry">
                        <mxPoint x="386" y="2424" as="sourcePoint"/>
                        <mxPoint x="303.5" y="2478" as="targetPoint"/>
                    </mxGeometry>
                </mxCell>
                <mxCell id="JkPwhh8nhOZcb355uoTD-119" value="kernel&lt;div&gt;挂载rootfs&lt;/div&gt;" style="text;html=1;align=center;verticalAlign=middle;whiteSpace=wrap;rounded=0;" parent="1" vertex="1">
                    <mxGeometry x="310" y="2413" width="60" height="30" as="geometry"/>
                </mxCell>
                <mxCell id="JkPwhh8nhOZcb355uoTD-120" value="启动和加载" style="text;html=1;align=center;verticalAlign=middle;whiteSpace=wrap;rounded=0;fontSize=17;" parent="1" vertex="1">
                    <mxGeometry x="8" y="12" width="99" height="30" as="geometry"/>
                </mxCell>
                <mxCell id="GWS-6x1wJPunTR5SMdct-18" value="" style="group" vertex="1" connectable="0" parent="1">
                    <mxGeometry x="90" y="2860" width="320" height="400" as="geometry"/>
                </mxCell>
                <mxCell id="GWS-6x1wJPunTR5SMdct-1" value="" style="rounded=0;whiteSpace=wrap;html=1;dashed=1;" vertex="1" parent="GWS-6x1wJPunTR5SMdct-18">
                    <mxGeometry width="320" height="400" as="geometry"/>
                </mxCell>
                <mxCell id="GWS-6x1wJPunTR5SMdct-2" style="edgeStyle=none;html=1;entryX=0.5;entryY=0;entryDx=0;entryDy=0;" edge="1" parent="GWS-6x1wJPunTR5SMdct-18" source="GWS-6x1wJPunTR5SMdct-4" target="GWS-6x1wJPunTR5SMdct-6">
                    <mxGeometry relative="1" as="geometry"/>
                </mxCell>
                <mxCell id="GWS-6x1wJPunTR5SMdct-3" value="预处理 -E" style="edgeLabel;html=1;align=center;verticalAlign=middle;resizable=0;points=[];" vertex="1" connectable="0" parent="GWS-6x1wJPunTR5SMdct-2">
                    <mxGeometry x="-0.4" y="2" relative="1" as="geometry">
                        <mxPoint x="28" y="8" as="offset"/>
                    </mxGeometry>
                </mxCell>
                <mxCell id="GWS-6x1wJPunTR5SMdct-4" value="源文件c/cpp" style="rounded=0;whiteSpace=wrap;html=1;" vertex="1" parent="GWS-6x1wJPunTR5SMdct-18">
                    <mxGeometry x="40" y="40" width="80" height="40" as="geometry"/>
                </mxCell>
                <mxCell id="GWS-6x1wJPunTR5SMdct-5" style="edgeStyle=none;html=1;entryX=0.5;entryY=0;entryDx=0;entryDy=0;" edge="1" parent="GWS-6x1wJPunTR5SMdct-18" source="GWS-6x1wJPunTR5SMdct-6" target="GWS-6x1wJPunTR5SMdct-9">
                    <mxGeometry relative="1" as="geometry"/>
                </mxCell>
                <mxCell id="GWS-6x1wJPunTR5SMdct-6" value="预处理对象" style="rounded=0;whiteSpace=wrap;html=1;" vertex="1" parent="GWS-6x1wJPunTR5SMdct-18">
                    <mxGeometry x="40" y="120" width="80" height="40" as="geometry"/>
                </mxCell>
                <mxCell id="GWS-6x1wJPunTR5SMdct-7" style="edgeStyle=none;html=1;entryX=0.5;entryY=0;entryDx=0;entryDy=0;" edge="1" parent="GWS-6x1wJPunTR5SMdct-18" source="GWS-6x1wJPunTR5SMdct-9" target="GWS-6x1wJPunTR5SMdct-11">
                    <mxGeometry relative="1" as="geometry"/>
                </mxCell>
                <mxCell id="GWS-6x1wJPunTR5SMdct-8" value="汇编 -c" style="edgeLabel;html=1;align=center;verticalAlign=middle;resizable=0;points=[];" vertex="1" connectable="0" parent="GWS-6x1wJPunTR5SMdct-7">
                    <mxGeometry x="-0.15" relative="1" as="geometry">
                        <mxPoint x="30" as="offset"/>
                    </mxGeometry>
                </mxCell>
                <mxCell id="GWS-6x1wJPunTR5SMdct-9" value="汇编文件" style="rounded=0;whiteSpace=wrap;html=1;" vertex="1" parent="GWS-6x1wJPunTR5SMdct-18">
                    <mxGeometry x="40" y="200" width="80" height="40" as="geometry"/>
                </mxCell>
                <mxCell id="GWS-6x1wJPunTR5SMdct-10" style="edgeStyle=none;html=1;entryX=0.5;entryY=0;entryDx=0;entryDy=0;exitX=0.5;exitY=1;exitDx=0;exitDy=0;" edge="1" parent="GWS-6x1wJPunTR5SMdct-18" source="GWS-6x1wJPunTR5SMdct-11" target="GWS-6x1wJPunTR5SMdct-14">
                    <mxGeometry relative="1" as="geometry"/>
                </mxCell>
                <mxCell id="GWS-6x1wJPunTR5SMdct-11" value="目标文件" style="rounded=0;whiteSpace=wrap;html=1;" vertex="1" parent="GWS-6x1wJPunTR5SMdct-18">
                    <mxGeometry x="40" y="280" width="80" height="40" as="geometry"/>
                </mxCell>
                <mxCell id="GWS-6x1wJPunTR5SMdct-12" style="edgeStyle=none;html=1;entryX=0.5;entryY=0;entryDx=0;entryDy=0;exitX=0.5;exitY=1;exitDx=0;exitDy=0;" edge="1" parent="GWS-6x1wJPunTR5SMdct-18" source="GWS-6x1wJPunTR5SMdct-13" target="GWS-6x1wJPunTR5SMdct-14">
                    <mxGeometry relative="1" as="geometry"/>
                </mxCell>
                <mxCell id="GWS-6x1wJPunTR5SMdct-13" value="库文件" style="rounded=0;whiteSpace=wrap;html=1;" vertex="1" parent="GWS-6x1wJPunTR5SMdct-18">
                    <mxGeometry x="200" y="280" width="80" height="40" as="geometry"/>
                </mxCell>
                <mxCell id="GWS-6x1wJPunTR5SMdct-14" value="可执行文件" style="rounded=0;whiteSpace=wrap;html=1;" vertex="1" parent="GWS-6x1wJPunTR5SMdct-18">
                    <mxGeometry x="120" y="360" width="80" height="40" as="geometry"/>
                </mxCell>
                <mxCell id="GWS-6x1wJPunTR5SMdct-15" value="编译 -S" style="edgeLabel;html=1;align=center;verticalAlign=middle;resizable=0;points=[];" vertex="1" connectable="0" parent="GWS-6x1wJPunTR5SMdct-18">
                    <mxGeometry x="110" y="180" as="geometry"/>
                </mxCell>
                <mxCell id="GWS-6x1wJPunTR5SMdct-16" value="链接" style="text;html=1;align=center;verticalAlign=middle;whiteSpace=wrap;rounded=0;" vertex="1" parent="GWS-6x1wJPunTR5SMdct-18">
                    <mxGeometry x="130" y="310" width="60" height="30" as="geometry"/>
                </mxCell>
                <mxCell id="GWS-6x1wJPunTR5SMdct-17" value="cpp编译流程" style="text;html=1;align=center;verticalAlign=middle;whiteSpace=wrap;rounded=0;" vertex="1" parent="GWS-6x1wJPunTR5SMdct-18">
                    <mxGeometry width="90" height="30" as="geometry"/>
                </mxCell>
            </root>
        </mxGraphModel>
    </diagram>
    <diagram id="tVGxeYSr0ObuihJFuCE2" name="Makefile">
        <mxGraphModel dx="960" dy="797" grid="1" gridSize="10" guides="1" tooltips="1" connect="1" arrows="1" fold="1" page="1" pageScale="1" pageWidth="850" pageHeight="1100" math="0" shadow="0">
            <root>
                <mxCell id="0"/>
                <mxCell id="1" parent="0"/>
            </root>
        </mxGraphModel>
    </diagram>
</mxfile>